<svg width="21" height="22" viewBox="0 0 21 22" stroke="#969BA0" xmlns="http://www.w3.org/2000/svg">
<path d="M17.7188 7.1875H3.28125C2.91881 7.1875 2.625 7.48131 2.625 7.84375V10.4688C2.625 10.8312 2.91881 11.125 3.28125 11.125H17.7188C18.0812 11.125 18.375 10.8312 18.375 10.4688V7.84375C18.375 7.48131 18.0812 7.1875 17.7188 7.1875Z"  stroke-width="1.3" stroke-linecap="round" stroke-linejoin="round"/>
<path d="M17.0625 11.125V17.0312C17.0625 17.2053 16.9934 17.3722 16.8703 17.4953C16.7472 17.6184 16.5803 17.6875 16.4062 17.6875H4.59375C4.4197 17.6875 4.25278 17.6184 4.12971 17.4953C4.00664 17.3722 3.9375 17.2053 3.9375 17.0312V11.125"  stroke-width="1.3" stroke-linecap="round" stroke-linejoin="round"/>
<path d="M10.5 7.1875V17.6875"  stroke-width="1.3" stroke-linecap="round" stroke-linejoin="round"/>
<path d="M14.2123 6.25937C13.2842 7.18744 10.5 7.18744 10.5 7.18744C10.5 7.18744 10.5 4.40321 11.4281 3.47513C11.7974 3.10627 12.298 2.89914 12.82 2.89929C13.3419 2.89944 13.8424 3.10685 14.2115 3.47593C14.5806 3.845 14.788 4.34553 14.7882 4.86748C14.7883 5.38943 14.5812 5.89008 14.2123 6.25937V6.25937Z"  stroke-width="1.3" stroke-linecap="round" stroke-linejoin="round"/>
<path d="M6.78763 6.25937C7.71571 7.18744 10.4999 7.18744 10.4999 7.18744C10.4999 7.18744 10.4999 4.40321 9.57187 3.47513C9.20258 3.10627 8.70193 2.89914 8.17998 2.89929C7.65803 2.89944 7.1575 3.10685 6.78843 3.47593C6.41935 3.845 6.21194 4.34553 6.21179 4.86748C6.21164 5.38943 6.41877 5.89008 6.78763 6.25937V6.25937Z"  stroke-width="1.3" stroke-linecap="round" stroke-linejoin="round"/>
</svg>
