<svg width="21" stroke="#969BA0" height="22" viewBox="0 0 21 22" fill="none" xmlns="http://www.w3.org/2000/svg">
<path d="M19.7464 10.3652L17.7187 11.379L15.0938 6.35196L17.142 5.32783C17.2959 5.25088 17.4738 5.23745 17.6375 5.29042C17.8012 5.34339 17.9376 5.45853 18.0172 5.61104L20.0346 9.47446C20.0749 9.55172 20.0995 9.63623 20.1068 9.72307C20.1141 9.80992 20.1041 9.89735 20.0773 9.98027C20.0504 10.0632 20.0073 10.1399 19.9505 10.206C19.8937 10.2721 19.8243 10.3262 19.7464 10.3652V10.3652Z"  stroke-width="1.4" stroke-linecap="round" stroke-linejoin="round"/>
<path d="M3.28125 11.291L1.25364 10.2772C1.17569 10.2382 1.10628 10.1841 1.04947 10.118C0.992656 10.0519 0.949577 9.97517 0.922745 9.89226C0.895914 9.80934 0.885867 9.72191 0.893191 9.63506C0.900514 9.54822 0.925062 9.46371 0.965402 9.38645L2.98279 5.52303C3.06243 5.37052 3.19877 5.25538 3.36246 5.20241C3.52616 5.14944 3.70411 5.16287 3.85799 5.23981L5.90625 6.26395L3.28125 11.291Z"  stroke-width="1.4" stroke-linecap="round" stroke-linejoin="round"/>
<path d="M17.7188 11.3789L16.4062 12.9144L13.3877 15.9329C13.3076 16.013 13.2081 16.0711 13.0989 16.1013C12.9897 16.1316 12.8745 16.133 12.7645 16.1055L8.01025 14.917C7.92108 14.8947 7.83758 14.8539 7.76517 14.7973L3.28125 11.291" stroke-width="1.4" stroke-linecap="round" stroke-linejoin="round"/>
<path d="M16.4062 12.9144L12.7968 10.2894L11.7468 11.0769C11.2924 11.4177 10.7398 11.6019 10.1718 11.6019C9.60385 11.6019 9.0512 11.4177 8.59682 11.0769L8.15215 10.7434C8.07693 10.687 8.01471 10.6151 7.96971 10.5325C7.9247 10.45 7.89796 10.3587 7.8913 10.2649C7.88463 10.1712 7.8982 10.077 7.93108 9.98895C7.96395 9.90087 8.01538 9.82087 8.08186 9.75439L11.2921 6.54414C11.353 6.4832 11.4254 6.43486 11.505 6.40188C11.5846 6.3689 11.67 6.35193 11.7561 6.35193H15.0937" stroke-width="1.4" stroke-linecap="round" stroke-linejoin="round"/>
<path d="M5.95337 6.26404L10.1632 5.03673C10.3136 4.99288 10.4747 5.00428 10.6174 5.06886L13.4531 6.35196" stroke-width="1.4" stroke-linecap="round" stroke-linejoin="round"/>
<path d="M9.1875 17.8363L6.71512 17.2182C6.6148 17.1931 6.52182 17.1447 6.44376 17.0768L4.59375 15.4688" stroke-width="1.4" stroke-linecap="round" stroke-linejoin="round"/>
</svg>
