<svg width="16" height="16" viewBox="0 0 16 16" fill="none" xmlns="http://www.w3.org/2000/svg">
<path d="M14.6668 5.79307C14.6668 6.58641 14.5402 7.31974 14.3202 7.99974H1.68016C1.46016 7.31974 1.3335 6.58641 1.3335 5.79307C1.3335 3.73307 2.9935 2.06641 5.04016 2.06641C6.24683 2.06641 7.32683 2.65307 8.00016 3.55307C8.6735 2.65307 9.7535 2.06641 10.9602 2.06641C13.0068 2.06641 14.6668 3.73307 14.6668 5.79307Z" fill="#6E7BA7"/>
<path opacity="0.4" d="M14.3202 8C13.2668 11.3333 10.0202 13.3267 8.41351 13.8733C8.18684 13.9533 7.81351 13.9533 7.58684 13.8733C5.98018 13.3267 2.73351 11.3333 1.68018 8H14.3202Z" fill="#6E7BA7"/>
</svg>
