<svg width="105" height="30" viewBox="0 0 105 30" fill="none" xmlns="http://www.w3.org/2000/svg">
<path d="M15.5 1.90735e-06C23.5081 1.90735e-06 30 3.38473 30 11.3929C30 19.401 26.2407 29 11.3571 29C3.34901 29 1 19.401 1 11.3929C1 3.38473 7.49187 1.90735e-06 15.5 1.90735e-06Z" fill="#3368DD"/>
<path d="M16.6186 6.70625C16.6186 7.70549 16.1962 8.51553 15.197 8.51553C14.1977 8.51553 13 7.18855 13 6.18931C13 5.19008 14.1977 4.89697 15.197 4.89697C16.1962 4.89697 16.6186 5.70701 16.6186 6.70625Z" fill="#F3E5D6"/>
<path fill-rule="evenodd" clip-rule="evenodd" d="M13.223 11.1193C13.0053 11.1744 12.8557 11.3722 12.8557 11.5968V19.8532C12.8557 19.9663 12.8443 20.0851 12.7721 20.1721C12.7021 20.2563 12.6033 20.3152 12.4873 20.3307C12.3712 20.3463 12.2545 20.3578 12.1374 20.365C11.8008 20.3928 11.4824 20.4066 11.1822 20.4066C10.3507 20.4066 9.76754 20.1571 9.43275 19.6579C9.09796 19.1588 8.93056 18.3269 8.93056 17.1622V11.9636C8.93056 11.6875 8.70671 11.4636 8.43057 11.4636H6.95376C6.67762 11.4636 6.45376 11.6875 6.45376 11.9636V17.5643C6.44819 18.2473 6.52426 18.9284 6.68029 19.5928C6.81293 20.1718 7.06812 20.7144 7.42811 21.1831C7.79826 21.6435 8.27711 22.0013 8.82003 22.223C9.39954 22.4725 10.1191 22.5973 10.9789 22.5973C11.8221 22.6028 12.6643 22.5365 13.4966 22.3991C14.0745 22.2998 14.5704 22.2024 14.9844 22.1068C15.206 22.0557 15.3593 21.8563 15.3594 21.6289L15.3604 13.3945C15.3605 13.2655 15.3764 13.1286 15.4677 13.0375C15.5395 12.966 15.6341 12.9169 15.7416 12.9026C15.8423 12.8892 15.9547 12.8749 16.079 12.8597C16.4039 12.819 16.7309 12.7981 17.0582 12.7971C17.4231 12.7873 17.7866 12.8471 18.1299 12.9737C18.4122 13.0841 18.6543 13.2807 18.8235 13.5366C19.0114 13.8411 19.1364 14.1817 19.1908 14.5374C19.2711 15.0302 19.3084 15.5293 19.3023 16.0288V21.2624C19.3023 21.5386 19.5261 21.7624 19.8023 21.7624H21.2626C21.5387 21.7624 21.7626 21.5386 21.7626 21.2624V15.6327C21.7685 14.9487 21.6968 14.2663 21.5491 13.5992C21.4251 13.0209 21.1739 12.479 20.8146 12.0146C20.4416 11.5576 19.9603 11.2059 19.4165 10.993C18.8362 10.7502 18.1109 10.6288 17.2405 10.6288C16.3937 10.6229 15.5478 10.6856 14.7108 10.8164C14.2105 10.8941 13.7141 10.9952 13.223 11.1193Z" fill="#F3E5D6"/>
<path d="M45.4544 21.5339C45.4543 21.7616 45.3007 21.9611 45.0787 22.0117C44.6897 22.1005 44.2255 22.1909 43.686 22.2831C42.8959 22.4128 42.0964 22.4754 41.296 22.4702C40.4798 22.4702 39.7967 22.3524 39.2466 22.1168C38.7312 21.9075 38.2766 21.5698 37.9252 21.1352C37.5835 20.6928 37.3412 20.1805 37.2153 19.634C37.0672 19.0068 36.995 18.3639 37.0003 17.7191V12.4603C37.0003 12.1841 37.2241 11.9603 37.5003 11.9603H38.8515C39.1276 11.9603 39.3515 12.1841 39.3515 12.4603V17.3396C39.3515 18.439 39.5104 19.2243 39.8282 19.6955C40.146 20.1667 40.6996 20.4023 41.489 20.4023C41.774 20.4023 42.0762 20.3892 42.3958 20.363C42.4999 20.3565 42.6037 20.3467 42.7071 20.3333C42.9405 20.3033 43.1044 20.0969 43.1044 19.8616V12.4668C43.1044 12.1907 43.3282 11.9668 43.6044 11.9668H44.9556C45.2317 11.9668 45.4556 12.1907 45.4556 12.4669L45.4544 21.5339Z" fill="#3368DD"/>
<path d="M48.4468 12.6857C48.4468 12.4606 48.5971 12.2624 48.8156 12.2081C49.2772 12.0933 49.7437 11.9997 50.2138 11.9276C51.0111 11.8044 51.8168 11.7453 52.6233 11.7509C53.4524 11.7509 54.1433 11.8652 54.696 12.0938C55.214 12.2943 55.6725 12.6255 56.0277 13.0558C56.3699 13.4931 56.6092 14.0034 56.7273 14.5479C56.868 15.1761 56.9363 15.8186 56.9306 16.4627V21.7347C56.9306 22.0108 56.7068 22.2347 56.4306 22.2347H55.0872C54.8111 22.2347 54.5872 22.0108 54.5872 21.7347V16.8357C54.5931 16.3653 54.5575 15.8954 54.481 15.4314C54.4292 15.0964 54.3101 14.7757 54.1312 14.489C53.97 14.248 53.7394 14.0629 53.4705 13.9589C53.1435 13.8398 52.7973 13.7834 52.4497 13.7927C52.1379 13.7936 51.8265 13.8132 51.517 13.8516C51.4071 13.8649 51.307 13.8775 51.2165 13.8893C50.9744 13.9209 50.798 14.1285 50.798 14.3726V21.7347C50.798 22.0108 50.5742 22.2347 50.298 22.2347H48.9468C48.6707 22.2347 48.4468 22.0108 48.4468 21.7347V12.6857Z" fill="#3368DD"/>
<path d="M62.1787 21.7349C62.1785 22.0109 61.9547 22.2345 61.6787 22.2345H60.3336C60.0575 22.2345 59.8336 22.0107 59.8336 21.7345V12.4667C59.8336 12.1906 60.0575 11.9667 60.3336 11.9667H61.6845C61.9608 11.9667 62.1847 12.1908 62.1845 12.4671L62.1787 21.7349Z" fill="#3368DD"/>
<path d="M67.7228 20.5265C68.3446 20.5265 68.798 20.4511 69.083 20.3001C69.2219 20.2279 69.3366 20.1158 69.4126 19.9779C69.4887 19.8401 69.5228 19.6826 69.5105 19.5253C69.5102 19.3572 69.4681 19.1919 69.3882 19.0444C69.3083 18.8969 69.1932 18.772 69.0532 18.6811C68.7492 18.4586 68.2475 18.2164 67.5479 17.9547C67.1473 17.809 66.7546 17.6416 66.3717 17.4534C66.0374 17.2916 65.727 17.0837 65.4493 16.8356C65.1881 16.5972 64.9794 16.306 64.8366 15.981C64.6774 15.5927 64.6014 15.1747 64.6138 14.7546C64.6138 13.8122 64.9592 13.0705 65.6501 12.5296C66.341 11.9886 67.2737 11.7172 68.4483 11.7155C69.0223 11.7131 69.5952 11.7688 70.1583 11.8817C70.4282 11.9314 70.6955 11.9946 70.9591 12.0711C71.2025 12.1416 71.341 12.3927 71.286 12.6402L71.0861 13.5398C71.0181 13.8462 70.6877 14.0135 70.3881 13.9201C70.2483 13.8766 70.1068 13.8384 69.9639 13.8057C69.5049 13.7015 69.0353 13.6523 68.5649 13.6591C68.1622 13.6419 67.7616 13.726 67.399 13.9038C67.2598 13.9725 67.1435 14.0806 67.0642 14.215C66.9848 14.3493 66.9459 14.504 66.952 14.6603C66.9489 14.8154 66.9784 14.9693 67.0388 15.1119C67.1084 15.256 67.212 15.3805 67.3407 15.4744C67.5163 15.6055 67.7052 15.7174 67.9042 15.8082C68.183 15.9381 68.4683 16.053 68.7592 16.1524C69.2437 16.3298 69.7173 16.5361 70.1777 16.7702C70.5312 16.9479 70.8554 17.1797 71.1389 17.4573C71.3858 17.7035 71.5752 18.0022 71.6934 18.3316C71.8181 18.7112 71.8772 19.1097 71.8682 19.5096C71.8682 20.4912 71.5085 21.2329 70.7891 21.7346C70.0697 22.2363 69.0407 22.488 67.7021 22.4898C66.9765 22.5085 66.2515 22.4324 65.5452 22.2634C65.2947 22.1988 65.0465 22.1255 64.801 22.0436C64.5678 21.9658 64.4352 21.7235 64.4848 21.4826L64.6863 20.5035C64.7491 20.1984 65.0725 20.0251 65.3678 20.1242C65.5959 20.2008 65.8266 20.2695 66.0595 20.3302C66.6032 20.4682 67.1623 20.5342 67.7228 20.5265Z" fill="#3368DD"/>
<path d="M73.4942 17.1472C73.478 16.3372 73.6129 15.5313 73.8919 14.7717C74.1268 14.1376 74.4874 13.5586 74.9515 13.0702C75.38 12.6259 75.8965 12.278 76.4672 12.0493C77.0231 11.823 77.6167 11.7066 78.216 11.7064C79.6151 11.7064 80.7063 12.1427 81.4896 13.0153C82.2729 13.8878 82.665 15.1966 82.6659 16.9418C82.6659 17.0726 82.6659 17.2192 82.6555 17.3828C82.6396 17.6333 82.4346 17.8252 82.1837 17.8252H75.9231C75.987 18.6498 76.275 19.2876 76.7872 19.7387C77.2993 20.1899 78.0412 20.4158 79.0127 20.4167C79.538 20.4212 80.0622 20.3686 80.5763 20.2597C80.7537 20.2239 80.9293 20.1807 81.1029 20.1301C81.4108 20.0404 81.7425 20.2273 81.7932 20.5439L81.9459 21.499C81.981 21.7185 81.868 21.9382 81.6586 22.0131C81.5964 22.0353 81.5335 22.056 81.4702 22.075C81.2147 22.1543 80.9553 22.2198 80.6929 22.2713C80.4015 22.3302 80.0867 22.38 79.7511 22.4192C79.4071 22.459 79.0611 22.4787 78.7148 22.4781C77.9192 22.4954 77.1277 22.3586 76.383 22.075C75.7611 21.8335 75.2026 21.4506 74.7507 20.956C74.3172 20.4687 73.9925 19.8928 73.7986 19.2676C73.5877 18.5813 73.485 17.8658 73.4942 17.1472ZM80.3147 16.0871C80.3156 15.7709 80.2698 15.4564 80.1786 15.1539C80.0954 14.8752 79.9599 14.6153 79.7796 14.3882C79.6035 14.172 79.3824 13.9977 79.1319 13.8778C78.8477 13.7465 78.5375 13.6829 78.2251 13.6919C77.8962 13.6841 77.57 13.7545 77.273 13.8974C77.009 14.0286 76.7741 14.2125 76.5825 14.438C76.3921 14.6642 76.2441 14.9237 76.1459 15.2036C76.0422 15.4891 75.9706 15.7855 75.9322 16.0871H80.3147Z" fill="#3368DD"/>
<path d="M84.5906 17.1564C84.5748 16.3462 84.7102 15.5403 84.9896 14.7808C85.2244 14.147 85.5845 13.568 86.048 13.0794C86.4769 12.6356 86.9933 12.2878 87.5637 12.0585C88.1195 11.832 88.7132 11.7151 89.3125 11.7142C90.7116 11.7142 91.8032 12.1527 92.5874 13.0296C93.3716 13.9065 93.7632 15.2154 93.7624 16.9561C93.7624 17.087 93.7624 17.2349 93.7533 17.3985C93.7394 17.649 93.5323 17.8396 93.2814 17.8396H87.0196C87.0844 18.6642 87.3728 19.3024 87.8849 19.7544C88.3971 20.2064 89.1385 20.432 90.1092 20.4311C90.6349 20.4356 91.1596 20.383 91.6741 20.274C91.8509 20.2384 92.0261 20.1952 92.1992 20.1448C92.5071 20.0549 92.839 20.2418 92.8897 20.5586L93.0427 21.5152C93.0777 21.7339 92.9657 21.9529 92.7575 22.028C92.6949 22.0506 92.6317 22.0715 92.568 22.0907C92.3125 22.17 92.053 22.2355 91.7907 22.287C91.4988 22.3455 91.1844 22.3943 90.8476 22.4336C90.5057 22.4732 90.1619 22.4928 89.8177 22.4925C89.0222 22.5102 88.2307 22.3738 87.486 22.0907C86.8641 21.8492 86.3056 21.4663 85.8537 20.9716C85.4205 20.4843 85.0962 19.9084 84.9028 19.2832C84.6887 18.5953 84.5834 17.8775 84.5906 17.1564ZM91.4111 16.0962C91.4149 15.7808 91.3712 15.4665 91.2816 15.1643C91.1993 14.8855 91.0642 14.6255 90.8839 14.3987C90.7078 14.1824 90.4866 14.0081 90.2362 13.8882C89.952 13.7567 89.6418 13.6927 89.3294 13.7011C89.0003 13.6938 88.6742 13.7646 88.3772 13.9078C88.1139 14.0389 87.8795 14.2223 87.688 14.4471C87.4977 14.6736 87.3494 14.933 87.2502 15.2128C87.1469 15.4983 87.0756 15.7946 87.0377 16.0962H91.4111Z" fill="#3368DD"/>
<path d="M104.836 21.5459C104.836 21.768 104.69 21.9646 104.475 22.0212C104.015 22.1427 103.548 22.2402 103.078 22.3134C102.342 22.4335 101.598 22.4926 100.853 22.4901C100.117 22.502 99.3855 22.3755 98.6956 22.117C98.0844 21.8836 97.5309 21.5182 97.0737 21.0464C96.6134 20.5644 96.2601 19.9888 96.0374 19.358C95.7888 18.6435 95.6669 17.8903 95.6772 17.133C95.6685 16.3855 95.7702 15.6409 95.9791 14.9237C96.1578 14.3024 96.4582 13.7238 96.8626 13.2222C97.2469 12.7542 97.7321 12.3812 98.2811 12.1319C98.8883 11.8667 99.5448 11.7363 100.206 11.7498C100.644 11.7431 101.081 11.8027 101.502 11.9265C101.836 12.0276 102.162 12.1591 102.473 12.3191V7.81608C102.473 7.57172 102.65 7.36316 102.891 7.32291L104.242 7.09718C104.547 7.0463 104.825 7.28108 104.825 7.58996L104.836 21.5459ZM98.0933 17.0715C98.0933 18.1186 98.3394 18.9396 98.8317 19.5347C99.3239 20.1298 100.004 20.4278 100.872 20.4287C101.194 20.4314 101.515 20.4148 101.834 20.3789C102.052 20.3542 102.268 20.3184 102.482 20.2716V14.3818C102.225 14.2128 101.948 14.0774 101.657 13.9787C101.304 13.8531 100.933 13.7902 100.558 13.7929C99.7035 13.7929 99.0787 14.0873 98.684 14.6763C98.2893 15.2653 98.0924 16.0637 98.0933 17.0715Z" fill="#3368DD"/>
<path d="M62.9917 8.06752C62.9917 9.20938 62.5091 10.135 61.3673 10.135C60.2254 10.135 58.8567 8.61866 58.8567 7.4768C58.8567 6.33494 60.2254 6 61.3673 6C62.5091 6 62.9917 6.92566 62.9917 8.06752Z" fill="#F3E5D6"/>
</svg>
