<svg width="16" height="16" viewBox="0 0 16 16" fill="none" xmlns="http://www.w3.org/2000/svg">
<path opacity="0.4" d="M6 4.79967V11.193C6 13.333 7.33333 14.6663 9.46667 14.6663H11.1933C13.3267 14.6663 14.66 13.333 14.66 11.1997V4.79967C14.6667 2.66634 13.3333 1.33301 11.2 1.33301H9.46667C7.33333 1.33301 6 2.66634 6 4.79967Z" fill="#6E7BA7"/>
<path d="M3.71329 5.41367L1.47996 7.64701C1.28663 7.84034 1.28663 8.16034 1.47996 8.35367L3.71329 10.587C3.90663 10.7803 4.22663 10.7803 4.41996 10.587C4.61329 10.3937 4.61329 10.0737 4.41996 9.88034L3.03996 8.50034H10.1666C10.44 8.50034 10.6666 8.27367 10.6666 8.00034C10.6666 7.72701 10.44 7.50034 10.1666 7.50034H3.03996L4.41996 6.12034C4.51996 6.02034 4.56663 5.89367 4.56663 5.76701C4.56663 5.64034 4.51996 5.50701 4.41996 5.41367C4.22663 5.21367 3.91329 5.21367 3.71329 5.41367Z" fill="#6E7BA7"/>
</svg>
