<svg width="16" height="16" viewBox="0 0 16 16" fill="none" xmlns="http://www.w3.org/2000/svg">
<path opacity="0.4" d="M4.48683 13.133C5.0335 12.5463 5.86683 12.593 6.34683 13.233L7.02016 14.133C7.56016 14.8463 8.4335 14.8463 8.9735 14.133L9.64683 13.233C10.1268 12.593 10.9602 12.5463 11.5068 13.133C12.6935 14.3997 13.6602 13.9797 13.6602 12.2063V4.69301C13.6668 2.00634 13.0402 1.33301 10.5202 1.33301H5.48016C2.96016 1.33301 2.3335 2.00634 2.3335 4.69301V12.1997C2.3335 13.9797 3.30683 14.393 4.48683 13.133Z" fill="#6E7BA7"/>
<path d="M10.0002 9.33333C9.62683 9.33333 9.3335 9.03333 9.3335 8.66667C9.3335 8.3 9.6335 8 10.0002 8C10.3668 8 10.6668 8.3 10.6668 8.66667C10.6668 9.03333 10.3735 9.33333 10.0002 9.33333Z" fill="#6E7BA7"/>
<path d="M6.00016 6.00033C5.62683 6.00033 5.3335 5.70033 5.3335 5.33366C5.3335 4.96699 5.6335 4.66699 6.00016 4.66699C6.36683 4.66699 6.66683 4.96699 6.66683 5.33366C6.66683 5.70033 6.3735 6.00033 6.00016 6.00033Z" fill="#6E7BA7"/>
<path d="M5.75322 9.69984C5.62655 9.69984 5.49988 9.65318 5.39988 9.55318C5.20655 9.35984 5.20655 9.03984 5.39988 8.84651L9.88655 4.35984C10.0799 4.16651 10.3999 4.16651 10.5932 4.35984C10.7865 4.55318 10.7865 4.87318 10.5932 5.06651L6.10655 9.55318C6.01322 9.65318 5.87988 9.69984 5.75322 9.69984Z" fill="#6E7BA7"/>
</svg>
