<svg width="19" height="18" viewBox="0 0 19 18" fill="#969BA0" xmlns="http://www.w3.org/2000/svg">
<path d="M9.5 17.9063C11.7626 17.9063 13.9326 17.0074 15.5325 15.4075C17.1324 13.8076 18.0312 11.6376 18.0312 9.375C18.0312 7.11237 17.1324 4.94242 15.5325 3.3425C13.9326 1.74258 11.7626 0.84375 9.5 0.84375C9.32595 0.84375 9.15903 0.91289 9.03596 1.03596C8.91289 1.15903 8.84375 1.32595 8.84375 1.5V3.46875C8.84375 3.6428 8.91289 3.80972 9.03596 3.93279C9.15903 4.05586 9.32595 4.125 9.5 4.125C9.67405 4.125 9.84097 4.05586 9.96404 3.93279C10.0871 3.80972 10.1562 3.6428 10.1562 3.46875V2.18572C11.5223 2.31051 12.8246 2.82196 13.9105 3.66017C14.9964 4.49838 15.821 5.62864 16.2877 6.91858C16.7544 8.20852 16.8439 9.60474 16.5457 10.9437C16.2475 12.2827 15.5739 13.509 14.604 14.479C13.634 15.4489 12.4077 16.1225 11.0687 16.4207C9.72974 16.7189 8.33352 16.6294 7.04358 16.1627C5.75364 15.696 4.62338 14.8714 3.78517 13.7855C2.94696 12.6996 2.43551 11.3973 2.31072 10.0313H3.59375C3.7678 10.0313 3.93472 9.96211 4.05779 9.83904C4.18086 9.71597 4.25 9.54905 4.25 9.375C4.25 9.20095 4.18086 9.03403 4.05779 8.91096C3.93472 8.78789 3.7678 8.71875 3.59375 8.71875H1.625C1.45095 8.71875 1.28403 8.78789 1.16096 8.91096C1.03789 9.03403 0.96875 9.20095 0.96875 9.375C0.971303 11.6368 1.87095 13.8053 3.47032 15.4047C5.06968 17.0041 7.23815 17.9037 9.5 17.9063Z"/>
<path d="M8.23616 9.03941C8.20525 9.14866 8.18881 9.26149 8.18727 9.37502C8.18727 9.63461 8.26425 9.88837 8.40847 10.1042C8.55269 10.32 8.75767 10.4883 8.9975 10.5876C9.23733 10.687 9.50123 10.7129 9.75583 10.6623C10.0104 10.6117 10.2443 10.4867 10.4279 10.3031C10.6114 10.1195 10.7364 9.88568 10.7871 9.63107C10.8377 9.37647 10.8117 9.11257 10.7124 8.87275C10.613 8.63292 10.4448 8.42793 10.229 8.28371C10.0131 8.13949 9.75936 8.06252 9.49977 8.06252C9.38624 8.06406 9.27341 8.08052 9.16417 8.11147L4.38561 3.33291C4.32507 3.27024 4.25266 3.22024 4.17259 3.18585C4.09253 3.15145 4.00641 3.13335 3.91928 3.13259C3.83214 3.13184 3.74573 3.14844 3.66508 3.18144C3.58442 3.21443 3.51115 3.26316 3.44954 3.32478C3.38792 3.3864 3.33919 3.45967 3.30619 3.54032C3.2732 3.62097 3.25659 3.70739 3.25735 3.79452C3.25811 3.88166 3.27621 3.96777 3.3106 4.04784C3.345 4.1279 3.39499 4.20032 3.45767 4.26085L8.23616 9.03941Z"/>
<path d="M12.7812 9.375C12.7812 9.54905 12.8504 9.71597 12.9735 9.83904C13.0965 9.96211 13.2635 10.0312 13.4375 10.0312H14.75C14.924 10.0312 15.091 9.96211 15.214 9.83904C15.3371 9.71597 15.4063 9.54905 15.4063 9.375C15.4063 9.20095 15.3371 9.03403 15.214 8.91096C15.091 8.78789 14.924 8.71875 14.75 8.71875H13.4375C13.2635 8.71875 13.0965 8.78789 12.9735 8.91096C12.8504 9.03403 12.7812 9.20095 12.7812 9.375Z"/>
<path d="M12.7483 5.19847L11.8199 6.12661C11.7589 6.18754 11.7105 6.25988 11.6775 6.33951C11.6445 6.41913 11.6275 6.50448 11.6274 6.59068C11.6274 6.67687 11.6444 6.76223 11.6773 6.84188C11.7103 6.92153 11.7586 6.99391 11.8195 7.05488C11.8805 7.11585 11.9528 7.16422 12.0324 7.19724C12.112 7.23025 12.1974 7.24726 12.2836 7.24729C12.3698 7.24732 12.4552 7.23037 12.5348 7.19742C12.6144 7.16446 12.6868 7.11614 12.7478 7.05521L13.6765 6.12727C13.7374 6.06632 13.7858 5.99397 13.8188 5.91433C13.8519 5.83468 13.8689 5.74932 13.8689 5.6631C13.8689 5.57689 13.852 5.49151 13.819 5.41184C13.7861 5.33218 13.7377 5.25979 13.6768 5.1988C13.6158 5.13782 13.5435 5.08943 13.4638 5.05641C13.3842 5.02339 13.2988 5.00638 13.2126 5.00635C13.1264 5.00632 13.041 5.02327 12.9614 5.05623C12.8817 5.0892 12.8093 5.13753 12.7483 5.19847Z"/>
</svg>
