<svg fill="#969BA0" width="21" height="22" viewBox="0 0 21 22" xmlns="http://www.w3.org/2000/svg">
<path d="M15.0937 19.8125C15.6157 19.8119 16.1161 19.6043 16.4852 19.2352C16.8543 18.8661 17.0619 18.3657 17.0625 17.8438V15.188C17.0625 15.0139 16.9934 14.847 16.8703 14.7239C16.7472 14.6009 16.5803 14.5317 16.4062 14.5317C16.2322 14.5317 16.0653 14.6009 15.9422 14.7239C15.8191 14.847 15.75 15.0139 15.75 15.188V17.8438C15.7498 18.0177 15.6807 18.1846 15.5576 18.3076C15.4346 18.4307 15.2677 18.4998 15.0937 18.5H3.28125C3.10725 18.4998 2.94042 18.4307 2.81738 18.3076C2.69435 18.1846 2.62516 18.0177 2.625 17.8438V3.40625C2.62516 3.23225 2.69435 3.06542 2.81738 2.94238C2.94042 2.81935 3.10725 2.75016 3.28125 2.75H15.0937C15.2677 2.75016 15.4346 2.81935 15.5576 2.94238C15.6807 3.06542 15.7498 3.23225 15.75 3.40625V5.43012C15.75 5.60417 15.8191 5.77109 15.9422 5.89416C16.0653 6.01723 16.2322 6.08637 16.4062 6.08637C16.5803 6.08637 16.7472 6.01723 16.8703 5.89416C16.9934 5.77109 17.0625 5.60417 17.0625 5.43012V3.40625C17.0619 2.88428 16.8543 2.38385 16.4852 2.01477C16.1161 1.64568 15.6157 1.43807 15.0937 1.4375H3.28125C2.75928 1.43807 2.25885 1.64568 1.88977 2.01477C1.52068 2.38385 1.31307 2.88428 1.3125 3.40625V17.8438C1.31307 18.3657 1.52068 18.8661 1.88977 19.2352C2.25885 19.6043 2.75928 19.8119 3.28125 19.8125H15.0937Z" />
<path d="M4.59375 12.5938C4.4197 12.5938 4.25278 12.6629 4.12971 12.786C4.00664 12.909 3.9375 13.076 3.9375 13.25C3.9375 13.424 4.00664 13.591 4.12971 13.714C4.25278 13.8371 4.4197 13.9062 4.59375 13.9062H7.21875C7.3928 13.9062 7.55972 13.8371 7.68279 13.714C7.80586 13.591 7.875 13.424 7.875 13.25C7.875 13.076 7.80586 12.909 7.68279 12.786C7.55972 12.6629 7.3928 12.5938 7.21875 12.5938H4.59375Z"/>
<path d="M17.4604 7.0586C17.3374 6.93557 17.1705 6.86646 16.9965 6.86646C16.8225 6.86646 16.6556 6.93557 16.5325 7.0586L10.036 13.5551C9.97506 13.616 9.9267 13.6883 9.8937 13.768C9.86071 13.8476 9.84373 13.9329 9.84375 14.0191V15.2188H4.59375C4.4197 15.2188 4.25278 15.2879 4.12971 15.411C4.00664 15.5341 3.9375 15.701 3.9375 15.8751C3.9375 16.0491 4.00664 16.216 4.12971 16.3391C4.25278 16.4622 4.4197 16.5313 4.59375 16.5313H12.3563C12.5303 16.5313 12.6972 16.4621 12.8202 16.339L19.3171 9.84254C19.4401 9.71948 19.5093 9.55259 19.5093 9.37857C19.5093 9.20456 19.4401 9.03767 19.3171 8.9146L17.4604 7.0586ZM12.0846 15.2188H11.1562V14.2908L16.9965 8.45057L17.9248 9.37857L12.0846 15.2188Z"/>
<path d="M9.84375 7.01563C9.84375 6.43155 9.67055 5.8606 9.34606 5.37496C9.02157 4.88932 8.56035 4.51081 8.02074 4.28729C7.48112 4.06378 6.88735 4.0053 6.3145 4.11924C5.74165 4.23319 5.21545 4.51445 4.80245 4.92745C4.38945 5.34045 4.10819 5.86665 3.99424 6.4395C3.8803 7.01235 3.93878 7.60613 4.16229 8.14574C4.38581 8.68535 4.76432 9.14657 5.24996 9.47106C5.7356 9.79555 6.30655 9.96875 6.89063 9.96875C7.67358 9.96788 8.42421 9.65647 8.97784 9.10284C9.53147 8.54921 9.84288 7.79858 9.84375 7.01563ZM6.89063 8.65625C6.56614 8.65625 6.24894 8.56003 5.97914 8.37976C5.70934 8.19948 5.49906 7.94325 5.37489 7.64347C5.25071 7.34368 5.21822 7.01381 5.28153 6.69556C5.34483 6.37731 5.50108 6.08497 5.73053 5.85553C5.95997 5.62608 6.25231 5.46983 6.57056 5.40653C6.88881 5.34322 7.21868 5.37571 7.51847 5.49989C7.81825 5.62406 8.07448 5.83434 8.25476 6.10414C8.43503 6.37394 8.53125 6.69114 8.53125 7.01563C8.5308 7.45061 8.3578 7.86765 8.05022 8.17522C7.74265 8.4828 7.32561 8.6558 6.89063 8.65625Z"/>
</svg>
