<svg width="14" height="14" viewBox="0 0 14 14" fill="none" xmlns="http://www.w3.org/2000/svg">
<path opacity="0.4" d="M9.7935 0.333008H4.20683C1.78016 0.333008 0.333496 1.77967 0.333496 4.20634V9.78634C0.333496 12.2197 1.78016 13.6663 4.20683 13.6663H9.78683C12.2135 13.6663 13.6602 12.2197 13.6602 9.79301V4.20634C13.6668 1.77967 12.2202 0.333008 9.7935 0.333008Z" fill="#6E7BA7"/>
<path d="M9.94689 4.20595V9.79262C9.94689 10.2193 9.60022 10.566 9.17355 10.566C8.74022 10.566 8.39355 10.2193 8.39355 9.79262V4.20595C8.39355 3.77928 8.74022 3.43262 9.17355 3.43262C9.60022 3.43262 9.94689 3.77928 9.94689 4.20595Z" fill="#3368DD"/>
<path d="M5.60704 7.62001V9.79335C5.60704 10.22 5.26038 10.5667 4.82704 10.5667C4.40038 10.5667 4.05371 10.22 4.05371 9.79335V7.62001C4.05371 7.19335 4.40038 6.84668 4.82704 6.84668C5.26038 6.84668 5.60704 7.19335 5.60704 7.62001Z" fill="#3368DD"/>
</svg>
