<svg width="16" height="16" viewBox="0 0 16 16" fill="none" xmlns="http://www.w3.org/2000/svg">
<path opacity="0.4" d="M7.66683 13.9997C11.1646 13.9997 14.0002 11.1641 14.0002 7.66634C14.0002 4.16854 11.1646 1.33301 7.66683 1.33301C4.16903 1.33301 1.3335 4.16854 1.3335 7.66634C1.3335 11.1641 4.16903 13.9997 7.66683 13.9997Z" fill="#6E7BA7"/>
<path d="M14.2002 14.6664C14.0802 14.6664 13.9602 14.6197 13.8735 14.533L12.6335 13.293C12.4535 13.113 12.4535 12.8197 12.6335 12.633C12.8135 12.453 13.1069 12.453 13.2935 12.633L14.5335 13.873C14.7135 14.053 14.7135 14.3464 14.5335 14.533C14.4402 14.6197 14.3202 14.6664 14.2002 14.6664Z" fill="#6E7BA7"/>
<path d="M9.46663 7.30046H8.29997V6.13379C8.29997 5.86046 8.0733 5.63379 7.79997 5.63379C7.52663 5.63379 7.29997 5.86046 7.29997 6.13379V7.30046H6.1333C5.85997 7.30046 5.6333 7.52712 5.6333 7.80046C5.6333 8.07379 5.85997 8.30046 6.1333 8.30046H7.29997V9.46712C7.29997 9.74046 7.52663 9.96712 7.79997 9.96712C8.0733 9.96712 8.29997 9.74046 8.29997 9.46712V8.30046H9.46663C9.73997 8.30046 9.96663 8.07379 9.96663 7.80046C9.96663 7.52712 9.73997 7.30046 9.46663 7.30046Z" fill="#6E7BA7"/>
</svg>
