<svg width="16" height="16" viewBox="0 0 16 16" fill="none" xmlns="http://www.w3.org/2000/svg">
<path d="M11.8331 4.69965C11.6731 4.67299 11.5065 4.66633 11.3331 4.66633H4.66646C4.4798 4.66633 4.2998 4.67966 4.12646 4.70633C4.2198 4.51966 4.35313 4.34635 4.51313 4.18635L6.67979 2.01301C7.59313 1.10634 9.07313 1.10634 9.98646 2.01301L11.1531 3.19298C11.5798 3.61298 11.8065 4.14632 11.8331 4.69965Z" fill="#6E7BA7"/>
<path opacity="0.4" d="M1.3335 10.907V8.00033C1.3335 6.18699 2.42683 4.92032 4.12683 4.70699C4.30016 4.68032 4.48016 4.66699 4.66683 4.66699H11.3335C11.5068 4.66699 11.6735 4.67365 11.8335 4.70032C13.5535 4.90032 14.6668 6.17366 14.6668 8.00033V11.3337C14.6668 13.1737 13.1735 14.667 11.3335 14.667H5.08683H4.66683C2.82683 14.667 1.3335 13.1737 1.3335 11.3337V10.907Z" fill="#6E7BA7"/>
<path d="M14.6668 8.33301H12.6668C11.9335 8.33301 11.3335 8.93301 11.3335 9.66634C11.3335 10.3997 11.9335 10.9997 12.6668 10.9997H14.6668" fill="#6E7BA7"/>
<path d="M0.820039 14.4535L1.3267 13.9468C1.06004 13.5468 0.906704 13.0668 0.906704 12.5535C0.906704 11.1468 2.0467 10.0068 3.45337 10.0068C4.86004 10.0068 6.00004 11.1468 6.00004 12.5535C6.00004 13.9602 4.86004 15.1002 3.45337 15.1002C2.94004 15.1002 2.46003 14.9468 2.06003 14.6802L1.55337 15.1868C1.45337 15.2868 1.32004 15.3402 1.1867 15.3402C1.05337 15.3402 0.920039 15.2868 0.820039 15.1868C0.613372 14.9802 0.613372 14.6535 0.820039 14.4535Z" fill="#6E7BA7"/>
</svg>
