<svg width="48" height="48" viewBox="0 0 48 48" fill="none" xmlns="http://www.w3.org/2000/svg">
<path opacity="0.4" d="M34 41H14C8 41 4 38 4 31V17C4 10 8 7 14 7H34C40 7 44 10 44 17V31C44 38 40 41 34 41Z" fill="#3368DD"/>
<path d="M24 30C27.3137 30 30 27.3137 30 24C30 20.6863 27.3137 18 24 18C20.6863 18 18 20.6863 18 24C18 27.3137 20.6863 30 24 30Z" fill="#3368DD"/>
<path d="M38 15.5H32C31.18 15.5 30.5 14.82 30.5 14C30.5 13.18 31.18 12.5 32 12.5H38C38.82 12.5 39.5 13.18 39.5 14C39.5 14.82 38.82 15.5 38 15.5Z" fill="#3368DD"/>
<path d="M16 35.5H10C9.18 35.5 8.5 34.82 8.5 34C8.5 33.18 9.18 32.5 10 32.5H16C16.82 32.5 17.5 33.18 17.5 34C17.5 34.82 16.82 35.5 16 35.5Z" fill="#3368DD"/>
</svg>
