<svg width="97" height="93" viewBox="0 0 97 93" fill="none" xmlns="http://www.w3.org/2000/svg">
<path d="M0.80865 87.0856C-0.364455 90.139 2.64112 93.1358 5.69124 91.9538L69.2817 64.9616L25.5115 22.3281L0.80865 87.0856Z" fill="#3368DD"/>
<path d="M26.56 20.4182C22.5872 24.327 29.0693 37.3567 41.0381 49.5207C53.0069 61.6849 65.9303 68.3773 69.9026 64.4685C73.8754 60.5599 67.3931 47.53 55.4243 35.366C45.7696 25.5538 35.4952 19.3021 29.7974 19.3027C28.4317 19.303 27.3281 19.6623 26.56 20.4182Z" fill="#27345E"/>
<path d="M20.5068 35.4528L20.0531 36.6407C20.0531 36.6427 20.0531 36.6447 20.0511 36.6484C19.2138 40.9947 24.2691 50.0145 32.6324 58.5142C40.7448 66.7589 49.3984 71.8998 53.8889 71.4987L56.0309 70.5896L60.8231 68.5565C59.7502 68.7257 58.438 68.5779 56.9444 68.1475C51.599 66.6131 43.9425 61.453 36.6733 54.0653C29.6261 46.9028 24.6778 39.4101 23.0617 34.0666C22.6157 32.5963 22.4248 31.2876 22.5124 30.1953L20.5068 35.4528Z" fill="#DABEA2"/>
<path d="M14.2882 51.7492L14.1438 52.1267C14.1438 52.1286 14.1438 52.1306 14.1419 52.1326C13.2657 55.1881 16.9811 61.9528 23.2416 68.3183C29.6169 74.7969 36.4523 78.6428 39.4391 77.6284C39.4452 77.6265 39.4487 77.6245 39.4526 77.6223L39.7602 77.4939L45.2166 75.1765C44.1826 75.5875 42.7066 75.4433 40.9423 74.8263C37.0457 73.4631 31.7474 69.7885 26.6998 64.6594C21.7597 59.6393 18.216 54.3993 16.849 50.5049C16.2433 48.7737 16.0641 47.3094 16.3874 46.25L14.2882 51.7492Z" fill="#DABEA2"/>
<path d="M8.78498 66.1804V66.1826L8.45792 67.0394C8.19504 69.1967 10.6175 73.4459 14.5625 77.4554C18.7338 81.6945 23.1987 84.2357 25.2279 83.6633L25.6248 83.4958L30.4912 81.4297C29.4221 81.671 27.8372 81.2446 25.987 80.2808C23.555 79.0149 20.6634 76.8205 17.8827 73.9931C15.1623 71.2281 13.0475 68.3675 11.8091 65.9468C10.8316 64.0425 10.3974 62.4107 10.6408 61.3164L8.78498 66.1804Z" fill="#DABEA2"/>
<path d="M3.91799 78.9356C3.91799 78.9356 3.91799 78.9375 3.91602 78.9375L3.73109 79.4261C3.58699 80.6453 4.95201 83.0404 7.17574 85.2991C9.43462 87.5951 11.8472 89.0088 13.0509 88.8315H13.0528L13.5122 88.635L17.4398 86.968C16.3922 87.1744 14.562 86.3643 12.5598 84.8513C11.6701 84.1834 10.747 83.3751 9.84355 82.4562C8.98681 81.5857 8.22723 80.6975 7.59254 79.8427C6.138 77.8819 5.32405 76.0806 5.42514 74.9844L3.91799 78.9356Z" fill="#DABEA2"/>
<path d="M91.2666 51.7487C91.2666 53.1804 92.4268 54.3408 93.8587 54.3408C95.2903 54.3408 96.4507 53.1804 96.4507 51.7487C96.4507 50.3169 95.2903 49.1562 93.8587 49.1562C92.4268 49.1562 91.2666 50.3169 91.2666 51.7487Z" fill="#6B5F89"/>
<path d="M87.6108 34.2335C87.6108 36.2524 89.2475 37.8892 91.2664 37.8892C93.2853 37.8892 94.9219 36.2524 94.9219 34.2335C94.9219 32.2145 93.2853 30.5781 91.2664 30.5781C89.2475 30.5781 87.6108 32.2145 87.6108 34.2335Z" fill="#F4F0FD"/>
<path d="M71.4917 77.9407C71.4917 79.9594 73.1285 81.5963 75.1473 81.5963C77.1662 81.5963 78.8028 79.9594 78.8028 77.9407C78.8028 75.9218 77.1662 74.2852 75.1473 74.2852C73.1285 74.2852 71.4917 75.9218 71.4917 77.9407Z" fill="#5D975E"/>
<path d="M50.8457 70.3564C50.8457 73.2199 53.1668 75.541 56.0302 75.541C58.8937 75.541 61.2144 73.2199 61.2144 70.3564C61.2144 67.493 58.8937 65.1719 56.0302 65.1719C53.1668 65.1719 50.8457 67.493 50.8457 70.3564Z" fill="#88433E"/>
<path d="M69.3911 31.2201C69.3911 34.0834 71.7124 36.4047 74.5759 36.4047C77.4391 36.4047 79.7602 34.0834 79.7602 31.2201C79.7602 28.3567 77.4391 26.0352 74.5759 26.0352C71.7124 26.0352 69.3911 28.3567 69.3911 31.2201Z" fill="#CAB460"/>
<path d="M71.9839 6.71727C71.9839 8.1491 73.1443 9.30954 74.5762 9.30954C76.0078 9.30954 77.1684 8.1491 77.1684 6.71727C77.1684 5.28566 76.0078 4.125 74.5762 4.125C73.1443 4.125 71.9839 5.28566 71.9839 6.71727Z" fill="#5D975E"/>
<path d="M10.3589 34.2335C10.3589 36.2524 11.9955 37.8892 14.0144 37.8892C16.0334 37.8892 17.67 36.2524 17.67 34.2335C17.67 32.2145 16.0334 30.5781 14.0144 30.5781C11.9955 30.5781 10.3589 32.2145 10.3589 34.2335Z" fill="#B099E5"/>
<path d="M10.1113 16.094C10.1113 17.5258 11.272 18.6861 12.7036 18.6861C14.1352 18.6861 15.2959 17.5258 15.2959 16.094C15.2959 14.6624 14.1352 13.502 12.7036 13.502C11.272 13.502 10.1113 14.6624 10.1113 16.094Z" fill="#82C08D"/>
<path d="M33.04 3C41.2893 9.6727 42.5672 21.7695 35.8945 30.0188" stroke="#B099E5" stroke-width="4.47867" stroke-miterlimit="10" stroke-linecap="round"/>
<path d="M64.4875 9C63.4382 12.4062 55.9944 10.1131 54.9448 13.5193C53.8955 16.9257 61.3392 19.2189 60.2899 22.6253C59.2403 26.0317 51.7965 23.7384 50.7472 27.1446C49.6976 30.5515 57.1415 32.8448 56.0917 36.2515C55.0422 39.6584 47.5984 37.365 46.5488 40.7719" stroke="#D89591" stroke-width="4.47867" stroke-miterlimit="10" stroke-linecap="round"/>
<path d="M56.187 55.0059C64.2474 48.1062 76.375 49.047 83.2748 57.1074" stroke="#82C08D" stroke-width="4.47867" stroke-miterlimit="10" stroke-linecap="round"/>
</svg>
