<svg width="48" height="48" viewBox="0 0 48 48" fill="none" xmlns="http://www.w3.org/2000/svg">
<path opacity="0.4" d="M33.6 18H14.4C8 18 4 22 4 28.4V33.58C4 40 8 44 14.4 44H33.58C39.98 44 43.98 40 43.98 33.6V28.4C44 22 40 18 33.6 18Z" fill="#3368DD"/>
<path d="M31.7599 24.86L25.0599 31.56C24.4799 32.14 23.5199 32.14 22.9399 31.56L16.2399 24.86C15.6599 24.28 15.6599 23.32 16.2399 22.74C16.8199 22.16 17.7799 22.16 18.3599 22.74L22.4999 26.88V5.5C22.4999 4.68 23.1799 4 23.9999 4C24.8199 4 25.4999 4.68 25.4999 5.5V26.88L29.6399 22.74C29.9399 22.44 30.3199 22.3 30.6999 22.3C31.0799 22.3 31.4599 22.44 31.7599 22.74C32.3599 23.32 32.3599 24.26 31.7599 24.86Z" fill="#3368DD"/>
</svg>
