<svg width="16" height="16" viewBox="0 0 16 16" fill="none" xmlns="http://www.w3.org/2000/svg">
<path opacity="0.4" d="M8 11.5669C8.60015 11.5669 9.08666 11.0804 9.08666 10.4802C9.08666 9.88007 8.60015 9.39355 8 9.39355C7.39985 9.39355 6.91333 9.88007 6.91333 10.4802C6.91333 11.0804 7.39985 11.5669 8 11.5669Z" fill="#6E7BA7"/>
<path d="M11.1 6.29297H4.89998C2.16665 6.29297 1.33331 7.1263 1.33331 9.85964V11.0996C1.33331 13.833 2.16665 14.6663 4.89998 14.6663H11.1C13.8333 14.6663 14.6666 13.833 14.6666 11.0996V9.85964C14.6666 7.1263 13.8333 6.29297 11.1 6.29297ZM7.99998 12.493C6.88665 12.493 5.98665 11.5863 5.98665 10.4796C5.98665 9.37297 6.88665 8.4663 7.99998 8.4663C9.11331 8.4663 10.0133 9.37297 10.0133 10.4796C10.0133 11.5863 9.11331 12.493 7.99998 12.493Z" fill="#6E7BA7"/>
<path opacity="0.4" d="M4.74669 6.29967V5.51967C4.74669 3.56634 5.30002 2.26634 8.00002 2.26634C10.7 2.26634 11.2534 3.56634 11.2534 5.51967V6.29967C11.5934 6.30634 11.9 6.31967 12.1867 6.35967V5.51967C12.1867 3.71967 11.7534 1.33301 8.00002 1.33301C4.24669 1.33301 3.81335 3.71967 3.81335 5.51967V6.35301C4.09335 6.31967 4.40669 6.29967 4.74669 6.29967Z" fill="#6E7BA7"/>
</svg>
