<svg width="48" height="48" viewBox="0 0 48 48" fill="none" xmlns="http://www.w3.org/2000/svg">
<path d="M29.68 21.7992L41 14.2192C42.14 13.4592 42.44 11.8992 41.68 10.7792L38.04 5.35919C37.28 4.21919 35.72 3.91919 34.6 4.67919L23.28 12.2592L29.68 21.7992Z" fill="#3368DD"/>
<path d="M29.04 20.8392L25.52 23.1992L20.18 26.7792L19.48 27.2392L19.16 26.7592L14.68 20.0792L14.36 19.5992L23.92 13.1992L29.04 20.8392Z" fill="#3368DD"/>
<path d="M11.28 32.04L19.18 26.7601L14.7 20.0801L6.80002 25.36C5.88002 25.98 5.64001 27.2201 6.26001 28.1401L8.52002 31.5001C9.12002 32.4201 10.36 32.66 11.28 32.04Z" fill="#3368DD"/>
<path opacity="0.4" d="M33.12 43.6192C32.92 43.6992 32.7 43.7592 32.5 43.7592C31.92 43.7592 31.38 43.4192 31.12 42.8592L23.66 26.3792L16.1 42.8792C15.84 43.4192 15.3 43.7592 14.72 43.7592C14.52 43.7592 14.3 43.6992 14.1 43.6192C13.36 43.2592 13.02 42.3792 13.36 41.6192L20.18 26.7792L25.52 23.1992L33.86 41.6392C34.2 42.3792 33.86 43.2792 33.12 43.6192Z" fill="#3368DD"/>
</svg>
