<svg width="48" height="48" viewBox="0 0 48 48" fill="none" xmlns="http://www.w3.org/2000/svg">
<path opacity="0.4" d="M23 42C33.4934 42 42 33.4934 42 23C42 12.5066 33.4934 4 23 4C12.5066 4 4 12.5066 4 23C4 33.4934 12.5066 42 23 42Z" fill="#3368DD"/>
<path d="M42.6001 43.9991C42.2401 43.9991 41.8801 43.8591 41.6201 43.5991L37.9001 39.8791C37.3601 39.3391 37.3601 38.4591 37.9001 37.8991C38.4401 37.3591 39.3201 37.3591 39.8801 37.8991L43.6001 41.6191C44.1401 42.1591 44.1401 43.0391 43.6001 43.5991C43.3201 43.8591 42.9601 43.9991 42.6001 43.9991Z" fill="#3368DD"/>
<path d="M28.3999 21.9004H24.8999V18.4004C24.8999 17.5804 24.2199 16.9004 23.3999 16.9004C22.5799 16.9004 21.8999 17.5804 21.8999 18.4004V21.9004H18.3999C17.5799 21.9004 16.8999 22.5804 16.8999 23.4004C16.8999 24.2204 17.5799 24.9004 18.3999 24.9004H21.8999V28.4004C21.8999 29.2204 22.5799 29.9004 23.3999 29.9004C24.2199 29.9004 24.8999 29.2204 24.8999 28.4004V24.9004H28.3999C29.2199 24.9004 29.8999 24.2204 29.8999 23.4004C29.8999 22.5804 29.2199 21.9004 28.3999 21.9004Z" fill="#3368DD"/>
</svg>
