<svg width="48" height="48" viewBox="0 0 48 48" fill="none" xmlns="http://www.w3.org/2000/svg">
<path opacity="0.4" d="M17.34 28H8C5.8 28 4 29.8 4 32V44H17.34V28Z" fill="#3368DD"/>
<path d="M26.66 20H21.32C19.12 20 17.32 21.8 17.32 24V44H30.66V24C30.66 21.8 28.88 20 26.66 20Z" fill="#3368DD"/>
<path opacity="0.4" d="M40 34H30.66V44H44V38C44 35.8 42.2 34 40 34Z" fill="#6E7BA7"/>
<path d="M30.02 9.70096C30.64 9.08096 30.88 8.34096 30.68 7.70096C30.48 7.06096 29.86 6.60097 28.98 6.46097L27.06 6.14096C26.98 6.12096 26.8 6.00093 26.76 5.92093L25.7 3.80094C24.9 2.18094 23.08 2.18094 22.28 3.80094L21.22 5.92093C21.18 6.00093 21 6.12096 20.92 6.14096L19 6.46097C18.12 6.60097 17.52 7.06096 17.3 7.70096C17.1 8.34096 17.34 9.08096 17.96 9.70096L19.44 11.201C19.5 11.261 19.58 11.501 19.56 11.581L19.14 13.4209C18.82 14.7809 19.34 15.4009 19.68 15.6609C20.02 15.9009 20.76 16.2209 21.98 15.5009L23.78 14.441C23.86 14.381 24.12 14.381 24.2 14.441L26 15.5009C26.56 15.8409 27.02 15.941 27.38 15.941C27.8 15.941 28.1 15.7809 28.28 15.6609C28.62 15.4209 29.14 14.8009 28.82 13.4209L28.4 11.581C28.38 11.481 28.44 11.261 28.52 11.201L30.02 9.70096Z" fill="#6E7BA7"/>
</svg>
