<svg width="17" height="16" viewBox="0 0 17 16" fill="none" xmlns="http://www.w3.org/2000/svg">
<path d="M8.43652 0C12.8548 0 16.4365 1.86744 16.4365 6.28571C16.4365 10.704 14.3624 16 6.15081 16C1.73253 16 0.436523 10.704 0.436523 6.28571C0.436523 1.86744 4.01825 0 8.43652 0Z" fill="#3368DD"/>
<path d="M9.05357 3.69988C9.05357 4.25119 8.82056 4.69811 8.26926 4.69811C7.71795 4.69811 7.05713 3.96598 7.05713 3.41468C7.05713 2.86337 7.71795 2.70166 8.26926 2.70166C8.82056 2.70166 9.05357 3.14858 9.05357 3.69988Z" fill="#F3E5D6"/>
<path fill-rule="evenodd" clip-rule="evenodd" d="M7.3457 6.09467C7.12695 6.14557 6.97751 6.34404 6.97751 6.56863V10.774C6.97751 10.8578 6.97184 10.9439 6.93082 11.017C6.86252 11.1385 6.7427 11.2251 6.59473 11.2351L6.58129 11.2359C6.39558 11.2512 6.2199 11.2589 6.05426 11.2589C5.5955 11.2589 5.27376 11.1212 5.08905 10.8458C4.90434 10.5704 4.81198 10.1114 4.81198 9.46885V6.82482C4.81198 6.54867 4.58812 6.32482 4.31198 6.32482H3.94547C3.66933 6.32482 3.44547 6.54867 3.44547 6.82482V9.6907C3.4424 10.0675 3.48436 10.4433 3.57045 10.8099C3.64363 11.1293 3.78443 11.4287 3.98304 11.6873C4.18726 11.9413 4.45145 12.1387 4.751 12.261C5.07073 12.3987 5.46775 12.4676 5.94208 12.4676C6.40731 12.4706 6.87197 12.434 7.33118 12.3582C7.57489 12.3163 7.79218 12.275 7.98307 12.2344C8.20551 12.187 8.35891 11.9876 8.35893 11.7602L8.35948 7.57761C8.35949 7.48186 8.36731 7.38264 8.42023 7.30284C8.4942 7.19128 8.61361 7.11251 8.75587 7.09506C8.93513 7.07259 9.11554 7.06106 9.29614 7.06055C9.49745 7.05511 9.69798 7.08814 9.88742 7.15795C10.0431 7.2189 10.1767 7.32733 10.2701 7.46853C10.3738 7.63655 10.4427 7.82445 10.4727 8.02069C10.517 8.29257 10.5376 8.56794 10.5342 8.84355V11.5069C10.5342 11.7831 10.7581 12.0069 11.0342 12.0069H11.3916C11.6678 12.0069 11.8916 11.7831 11.8916 11.5069V8.62499C11.8949 8.24761 11.8554 7.87112 11.7738 7.50304C11.7054 7.18399 11.5669 6.88502 11.3686 6.6288C11.1629 6.37666 10.8973 6.1826 10.5973 6.06515C10.2771 5.9312 9.87692 5.86423 9.39668 5.86423C8.92951 5.86095 8.46282 5.89557 8.001 5.96775C7.78109 6.00189 7.56251 6.04423 7.3457 6.09467Z" fill="#F3E5D6"/>
</svg>
