<svg width="49" height="48" viewBox="0 0 49 48" fill="none" xmlns="http://www.w3.org/2000/svg">
<path d="M44.6668 38V44H4.66675V38C4.66675 36.9 5.56675 36 6.66675 36H42.6668C43.7668 36 44.6668 36.9 44.6668 38Z" fill="#3368DD" stroke="#3368DD" stroke-width="1.53719" stroke-miterlimit="10" stroke-linecap="round" stroke-linejoin="round"/>
<path d="M11.1791 35.4876V22.5124H14.1544V35.4876H11.1791Z" fill="#3368DD" stroke="#3368DD" stroke-width="1.02479"/>
<path d="M19.1791 35.4876V22.5124H22.1544V35.4876H19.1791Z" fill="#3368DD" stroke="#3368DD" stroke-width="1.02479"/>
<path d="M27.1791 35.4876V22.5124H30.1544V35.4876H27.1791Z" fill="#3368DD" stroke="#3368DD" stroke-width="1.02479"/>
<path d="M35.1791 35.4876V22.5124H38.1544V35.4876H35.1791Z" fill="#3368DD" stroke="#3368DD" stroke-width="1.02479"/>
<path d="M46.6667 44.9876H2.66675C2.12974 44.9876 1.67914 44.537 1.67914 44C1.67914 43.463 2.12974 43.0124 2.66675 43.0124H46.6667C47.2038 43.0124 47.6544 43.463 47.6544 44C47.6544 44.537 47.2038 44.9876 46.6667 44.9876Z" fill="#3368DD" stroke="#3368DD" stroke-width="1.02479"/>
<path d="M25.2164 4.77641L43.2165 11.9764C43.4548 12.0718 43.6942 12.2717 43.8754 12.5385C44.0565 12.8052 44.1544 13.1017 44.1544 13.3607V20.0007C44.1544 20.8177 43.4838 21.4883 42.6668 21.4883H6.66675C5.84974 21.4883 5.17914 20.8177 5.17914 20.0007V13.3607C5.17914 13.1017 5.27701 12.8052 5.45814 12.5385C5.63933 12.2717 5.87869 12.0718 6.11705 11.9764L24.1171 4.77641C24.237 4.72845 24.4369 4.69306 24.6667 4.69306C24.8966 4.69306 25.0965 4.72845 25.2164 4.77641ZM21.1544 14.0007C21.1544 15.9437 22.7238 17.5131 24.6667 17.5131C26.6097 17.5131 28.1791 15.9437 28.1791 14.0007C28.1791 12.0577 26.6097 10.4883 24.6667 10.4883C22.7238 10.4883 21.1544 12.0577 21.1544 14.0007Z" fill="#3368DD" stroke="#3368DD" stroke-width="1.02479"/>
</svg>
