<svg width="48" height="48" viewBox="0 0 48 48" fill="none" xmlns="http://www.w3.org/2000/svg">
<path d="M47.0416 24.5436C47.0416 22.848 46.8892 21.2176 46.6061 19.6523H24.0435V28.9023H36.9364C36.381 31.8915 34.6932 34.4241 32.156 36.1197V42.1197H39.8983C44.4282 37.9567 47.0416 31.8263 47.0416 24.5436Z" fill="#3368DD"/>
<path d="M24.0436 47.9135C30.5118 47.9135 35.9347 45.7722 39.8984 42.12L32.1561 36.12C30.0109 37.5548 27.2668 38.4026 24.0436 38.4026C17.804 38.4026 12.5227 34.1961 10.6389 28.5439H2.63525V34.7396C6.57718 42.5548 14.6788 47.9135 24.0436 47.9135Z" fill="#3368DD"/>
<path d="M10.6386 28.5434C10.1595 27.1086 9.88728 25.576 9.88728 23.9999C9.88728 22.4238 10.1595 20.8912 10.6386 19.4564V13.2607H2.63501C0.958057 16.593 0.0854361 20.2708 0.0869159 23.9999C0.0869159 27.8586 1.01251 31.5107 2.63501 34.739L10.6386 28.5434Z" fill="#FBBC05"/>
<path d="M24.0436 9.59778C27.5608 9.59778 30.7187 10.8043 33.2015 13.1739L40.0726 6.31518C35.9238 2.45648 30.501 0.0869141 24.0436 0.0869141C14.6788 0.0869141 6.57718 5.44561 2.63525 13.2608L10.6389 19.4565C12.5227 13.8043 17.804 9.59778 24.0436 9.59778Z" fill="#EA4335"/>
</svg>
